<svg xmlns="http://www.w3.org/2000/svg" version="1.1" xmlns:xlink="http://www.w3.org/1999/xlink" xmlns:svgjs="http://svgjs.com/svgjs" width="310" height="249"><svg width="310" height="249" viewBox="0 0 310 249" fill="none" xmlns="http://www.w3.org/2000/svg">
<path d="M66.8014 29.9155C64.8644 23.1573 62.6177 11.5864 61.186 3.5547C60.7484 1.09955 63.0929 -0.788998 65.3217 0.33015C67.9197 1.63485 70.7892 3.28231 72.948 4.92675C77.4833 8.38167 82.3886 8.83828 89.3803 14.1645C93.3779 17.2096 102.278 24.8016 109.549 31.094C111.937 33.1612 115.6 30.99 114.922 27.9053L111.043 10.2666C110.401 7.34579 113.692 5.16578 116.131 6.89671L142.959 25.9356C144.706 27.1755 147.163 26.4334 147.948 24.4398L148.088 24.0823C149.752 19.8522 151.663 14.9969 151.915 13.4933C152.232 11.6133 155.041 7.00693 157.768 3.47097C159.036 1.82662 161.459 2.04767 162.597 3.78422L181.853 33.1533C182.757 34.5316 184.544 35.0239 186.018 34.2867C191.442 31.5755 199.756 27.2648 203.265 24.8775C208.435 21.3607 212.115 18.498 215.746 16.791C216.906 16.2457 218.378 15.3054 219.702 14.5083C221.25 13.5761 222.788 14.5442 222.981 16.3403L223.666 22.6746C223.993 25.7056 223.204 35.0138 222.512 41.803C222.29 43.988 224.223 45.7869 226.382 45.3892L267.709 37.773C270.282 37.2988 272.342 39.8863 271.304 42.2875L269.816 45.731C269.746 45.8916 269.664 46.0463 269.57 46.1938L254.962 69.0667C253.847 70.8137 254.627 73.1219 256.644 73.6018C265.882 75.7998 279.788 76.016 283.932 76.4814C287.788 76.9145 300.944 78.106 307.8 79.8399C309.763 80.3364 310.15 82.5122 308.761 83.9853L301.682 91.4939L270.083 116.974C268.88 117.943 268.518 119.622 269.23 120.994C272.272 126.862 277.27 136.113 279.799 139.39C282.146 142.432 284.71 151.115 286.269 157.356C286.772 159.37 285.243 161.287 283.168 161.227C278.245 161.085 271.654 160.603 268.256 159.373C264.497 158.012 256.547 159.453 251.343 160.766C249.811 161.152 248.836 162.623 249.005 164.193L250.467 177.73C250.976 182.441 250.358 210.449 248.613 211.952C247.262 213.116 242.225 209.322 239.643 207.085C239.476 206.941 239.295 206.811 239.103 206.701L214.125 192.414C212.49 191.479 210.406 192.114 209.591 193.811C208.1 196.913 206.223 200.937 205.209 203.49C203.437 207.955 197.877 241.591 195.134 241.888C192.94 242.125 191.302 240.658 190.757 239.895L156.695 192.007C155.369 190.144 152.592 190.176 151.31 192.069C136.589 213.816 110.949 250.368 108.299 248.799C105.675 247.244 105.578 201.135 105.899 173.586C105.929 171.052 103.194 169.447 100.994 170.706L45.1429 202.653C43.096 203.824 40.7273 202.494 40.9618 200.147C41.284 196.924 41.9169 193.158 42.5344 190.649C43.6115 186.275 52.2289 168.405 59.6432 156.853C60.8632 154.952 59.9624 152.361 57.8037 151.696C38.8541 145.862 10.694 135.349 8.49621 134.005C6.81687 132.979 3.01413 131.317 0.760233 129.83C-0.463549 129.023 -0.116775 127.601 1.13733 126.841L51.8387 96.1371C53.7786 94.9623 53.9657 92.2197 52.1991 90.7965C39.1815 80.3106 17.9315 63.2535 14.6455 60.8586C12.242 59.1071 10.3111 54.8187 9.04565 51.0078C8.28649 48.7218 10.3713 46.6556 12.7114 47.2267C24.1573 50.0207 41.1636 54.2234 44.7429 55.3077C48.2211 56.3615 62.4198 57.1998 72.3726 57.6326C74.793 57.7379 76.4667 55.2527 75.5133 53.0256C72.6457 46.3273 68.7103 36.5763 66.8014 29.9155Z" fill="#D2B069"></path>
<path d="M131.628 127.428L122.901 60.3941C122.768 59.3746 123.107 58.325 123.972 57.7699C126.874 55.9082 131.416 55.0895 134.487 54.3885C139.044 53.3487 198.062 46.2546 202.505 46.9723C206.947 47.6899 209.083 55.029 209.2 59.0914C209.317 63.1537 202.885 65.8371 199.712 66.156C196.539 66.4749 150.577 70.2786 148.962 71.6049C147.347 72.9312 145.993 73.3705 146.253 75.9636C146.406 77.4833 147.353 80.6831 148.17 83.2069C148.626 84.615 149.989 85.5092 151.465 85.4006C166.54 84.2935 190.552 82.6459 193.085 83.7125C196.431 85.1223 197.817 90.791 197.155 95.8048C196.644 99.6759 191.021 102.019 187.985 102.792C187.774 102.846 187.562 102.872 187.344 102.878C176.552 103.186 158.477 103.824 156.878 103.985C154.858 104.187 153.82 105.456 152.494 106.753C151.167 108.05 158.054 164.408 155.893 171.9C153.732 179.393 140.473 177.757 136.086 171.795C132.577 167.026 131.652 140.23 131.628 127.428Z" fill="#B83543"></path>
</svg><style>@media (prefers-color-scheme: light) { :root { filter: none; } }
</style></svg>