<svg width="1197" height="272" viewBox="0 0 1197 272" fill="none" xmlns="http://www.w3.org/2000/svg">
<path d="M385.56 147.856C385.56 161.204 381.158 171.996 372.354 180.516C363.55 189.036 352.758 193.296 340.262 193.296C328.618 193.296 318.394 189.746 309.448 182.362C299.65 174.41 294.822 164.896 294.822 153.82C294.822 143.596 298.372 133.94 305.614 125.136C311.862 117.468 320.382 111.078 331.174 105.682C332.026 103.126 333.73 101.422 336.57 100.57C337.99 100.286 340.546 100.002 344.238 100.002C356.734 100.002 366.816 104.83 374.626 114.202C381.868 123.29 385.56 134.508 385.56 147.856ZM373.916 148.85C373.916 129.254 365.964 117.326 350.344 112.782C349.492 113.208 348.64 113.492 347.504 113.492C338.416 114.628 329.47 119.172 320.666 126.84C311.152 135.076 306.466 143.312 306.466 151.832C306.466 160.778 310.158 168.02 317.684 173.416C324.358 178.528 332.31 180.942 341.682 180.942C350.77 180.942 358.438 177.96 364.686 171.712C370.792 165.606 373.916 157.938 373.916 148.85ZM454.527 181.652C454.527 184.35 453.533 186.622 451.687 188.61C445.723 194.432 436.777 197.272 424.849 197.272C407.383 197.272 398.721 186.906 398.721 165.89C398.721 158.79 400.283 147.43 403.549 131.81C406.957 115.906 410.223 103.978 413.631 96.1679C415.477 91.7659 417.891 89.4939 420.731 89.4939C424.423 89.4939 426.269 91.3399 426.269 95.0319C426.269 96.3099 425.843 98.0139 425.133 100.002C415.335 129.538 410.507 151.406 410.507 165.606C410.507 172.99 411.501 178.102 413.631 180.658C415.619 183.356 419.453 184.634 425.133 184.634C431.523 184.634 437.629 183.072 443.451 179.948C444.161 177.392 446.007 176.114 448.847 176.114C452.539 176.114 454.527 177.96 454.527 181.652ZM548.191 105.54C548.191 109.516 545.777 112.498 541.233 114.77C537.683 116.758 535.695 117.61 535.127 117.61C534.417 117.61 533.139 117.184 531.151 116.332C518.513 123.858 506.017 133.798 493.805 146.152C497.639 151.548 502.183 156.944 507.437 162.34C513.259 168.588 518.087 172.99 522.063 175.404C523.199 175.404 523.767 175.262 524.051 175.262C525.329 175.262 526.749 175.972 528.311 177.25L536.689 184.776C539.671 187.474 541.233 189.888 541.233 191.876C541.233 193.438 540.665 194.858 539.529 196.136C538.251 197.414 536.831 198.124 535.269 198.124C532.571 198.124 529.305 196.704 525.329 194.148C512.123 185.344 498.775 172.138 485.427 154.672C483.013 156.802 480.457 158.222 477.901 158.79C477.191 165.464 476.907 171.57 476.907 176.966C476.907 183.782 476.907 188.61 477.191 191.166C477.191 191.734 477.191 192.728 477.475 194.006C477.617 195.426 477.759 196.278 477.759 196.704C477.759 198.124 477.191 199.402 476.197 200.538C475.061 201.674 473.925 202.242 472.505 202.242C470.233 202.242 468.387 200.964 467.109 198.692C465.973 196.846 465.547 194.858 465.547 192.302C465.547 190.882 465.547 187.332 465.689 181.51C465.689 175.83 465.689 172.706 465.689 171.854C465.689 159.216 467.819 143.738 472.079 125.42C475.913 108.522 480.599 93.7539 485.995 81.1159C487.415 77.9919 489.119 76.2879 491.249 76.2879C494.941 76.2879 496.929 77.9919 496.929 81.3999C496.929 82.5359 495.367 87.6479 492.385 96.5939C488.835 107.244 486.989 113.066 486.705 113.918C483.865 123.858 481.735 133.372 480.173 142.744L493.947 129.68C500.053 124 508.005 117.752 517.945 111.22C529.447 103.268 537.541 99.2919 542.369 99.2919C543.789 99.2919 545.067 100.002 546.203 101.28C547.481 102.558 548.191 103.978 548.191 105.54ZM616.692 173.842C616.692 175.83 615.556 178.528 613.284 181.794C606.894 191.734 597.38 196.562 584.884 196.562C574.944 196.562 566.992 193.296 561.312 186.622C555.348 180.09 552.508 171.57 552.508 161.062C552.508 155.666 554.354 147.998 558.33 138.2C561.738 129.254 565.714 121.586 569.974 115.196C565.004 117.752 562.164 118.888 561.596 118.888C557.62 118.888 555.774 116.9 555.774 112.924C555.774 110.226 558.756 107.386 564.862 104.404C579.346 97.3039 592.41 93.7539 604.054 93.7539C607.746 93.7539 611.012 94.6059 613.852 96.3099C615.698 97.4459 616.692 99.2919 616.692 101.848C616.692 105.256 614.704 106.96 610.87 106.96C610.16 106.96 609.166 106.818 607.746 106.25C606.326 105.966 605.19 105.682 604.48 105.682C597.806 105.682 589.712 107.244 580.198 110.368C581.192 112.924 581.76 114.628 581.76 115.622C581.76 116.758 581.192 118.32 580.198 120.166C575.228 129.112 571.11 137.348 567.986 144.732C579.346 141.608 589.286 139.194 597.806 137.49C604.48 136.212 608.882 135.502 611.012 135.502C614.704 135.502 616.692 137.49 616.692 141.466C616.692 144.306 614.988 146.862 611.58 149.134C608.172 151.69 605.758 152.826 604.622 152.826C602.208 152.826 600.078 151.832 598.374 149.844C583.464 153.11 571.962 155.95 564.01 158.222C563.726 159.642 563.726 161.062 563.726 162.482C563.726 169.298 565.572 174.694 569.406 178.67C573.382 182.788 578.494 184.776 585.026 184.776C589.712 184.776 593.546 183.782 596.67 181.652C599.226 179.948 601.924 176.966 605.048 172.564C606.752 169.724 608.882 168.304 611.296 168.304C612.432 168.304 613.71 169.014 614.988 170.15C616.124 171.428 616.692 172.706 616.692 173.842ZM718.745 198.834C718.745 202.242 716.615 203.946 712.497 203.946C710.793 203.946 708.947 202.1 707.101 198.55C705.397 195.284 704.545 192.728 704.545 190.74C704.545 190.03 704.687 189.32 704.971 188.61C704.261 185.77 703.267 181.936 701.847 177.108C692.333 174.41 683.671 172.99 676.003 172.99C671.601 172.99 664.927 173.416 656.123 174.268C654.703 180.8 654.135 186.196 654.135 190.314C654.135 191.876 654.277 193.58 654.561 195.284C654.277 196.42 653.425 197.414 652.289 198.55C651.153 199.544 650.017 200.112 649.023 200.112C646.183 200.112 644.195 198.976 643.201 196.846C642.633 195.426 642.349 193.296 642.349 190.03C642.349 187.474 642.917 182.788 644.337 175.972C638.515 176.966 634.823 177.392 633.261 177.392C629.853 177.392 628.291 175.262 628.291 171.002C628.291 167.736 629.995 165.89 633.545 165.322C633.829 165.322 638.373 164.754 647.319 163.334C652.289 144.022 659.815 122.438 669.755 98.5819C670.891 95.5999 671.743 93.7539 672.169 93.0439C673.447 91.0559 675.009 89.9199 676.855 89.9199C679.269 89.9199 681.967 92.9019 685.091 98.8659C698.581 125.846 709.515 156.944 717.751 192.018C718.319 195 718.745 197.13 718.745 198.834ZM697.871 163.05C691.197 141.75 684.239 124.142 676.855 110.51C670.323 125.42 664.501 142.46 659.389 161.772C666.347 160.92 672.169 160.494 676.855 160.494C681.967 160.494 689.067 161.346 697.871 163.05ZM797.022 116.332C797.022 133.514 783.106 148.424 755.558 161.204C764.078 165.464 770.894 169.298 775.864 172.99C786.514 180.942 791.91 188.184 791.91 194.858C791.91 198.834 790.206 200.964 786.798 200.964C782.964 200.964 780.976 198.834 780.976 194.574C778.988 190.598 773.734 185.77 765.214 180.232C757.972 175.688 751.724 172.422 746.328 170.434C746.328 178.954 747.038 186.622 748.174 193.438C748.174 197.556 746.47 199.686 743.062 199.686C740.08 199.686 738.376 198.124 737.95 195.284C736.53 187.19 735.82 179.38 735.82 171.712V165.322C731.276 165.322 729.004 163.476 729.004 159.642C729.004 155.666 731.418 153.536 736.388 153.11C736.956 146.72 737.808 136.922 739.086 123.574C735.82 122.722 733.974 120.592 733.69 117.042C733.974 114.202 735.252 111.646 737.524 109.516C742.494 103.978 748.174 99.5759 754.706 96.1679C761.096 92.9019 767.202 91.1979 773.024 91.1979C779.556 91.1979 785.236 93.6119 789.922 98.2979C794.608 103.126 797.022 109.232 797.022 116.332ZM786.656 115.906C786.656 112.214 785.378 109.09 782.822 106.818C780.408 104.972 777.568 103.978 774.444 103.978C766.35 103.978 758.256 107.102 750.02 113.208C749.736 118.036 749.168 125.562 748.174 135.786C747.89 138.768 747.322 144.022 746.612 151.548C755.984 148.708 764.788 143.88 773.166 137.064C782.112 129.538 786.656 122.438 786.656 115.906ZM892.097 105.54C892.097 109.516 889.683 112.498 885.139 114.77C881.589 116.758 879.601 117.61 879.033 117.61C878.323 117.61 877.045 117.184 875.057 116.332C862.419 123.858 849.923 133.798 837.711 146.152C841.545 151.548 846.089 156.944 851.343 162.34C857.165 168.588 861.993 172.99 865.969 175.404C867.105 175.404 867.673 175.262 867.957 175.262C869.235 175.262 870.655 175.972 872.217 177.25L880.595 184.776C883.577 187.474 885.139 189.888 885.139 191.876C885.139 193.438 884.571 194.858 883.435 196.136C882.157 197.414 880.737 198.124 879.175 198.124C876.477 198.124 873.211 196.704 869.235 194.148C856.029 185.344 842.681 172.138 829.333 154.672C826.919 156.802 824.363 158.222 821.807 158.79C821.097 165.464 820.813 171.57 820.813 176.966C820.813 183.782 820.813 188.61 821.097 191.166C821.097 191.734 821.097 192.728 821.381 194.006C821.523 195.426 821.665 196.278 821.665 196.704C821.665 198.124 821.097 199.402 820.103 200.538C818.967 201.674 817.831 202.242 816.411 202.242C814.139 202.242 812.293 200.964 811.015 198.692C809.879 196.846 809.453 194.858 809.453 192.302C809.453 190.882 809.453 187.332 809.595 181.51C809.595 175.83 809.595 172.706 809.595 171.854C809.595 159.216 811.725 143.738 815.985 125.42C819.819 108.522 824.505 93.7539 829.901 81.1159C831.321 77.9919 833.025 76.2879 835.155 76.2879C838.847 76.2879 840.835 77.9919 840.835 81.3999C840.835 82.5359 839.273 87.6479 836.291 96.5939C832.741 107.244 830.895 113.066 830.611 113.918C827.771 123.858 825.641 133.372 824.079 142.744L837.853 129.68C843.959 124 851.911 117.752 861.851 111.22C873.353 103.268 881.447 99.2919 886.275 99.2919C887.695 99.2919 888.973 100.002 890.109 101.28C891.387 102.558 892.097 103.978 892.097 105.54ZM921.832 98.8659C921.832 102.274 921.122 108.806 919.986 118.462L914.164 163.334C912.46 175.262 911.75 183.214 911.75 186.906C911.75 188.468 912.034 189.888 912.602 191.024C913.454 193.012 914.022 194.29 914.022 194.858C914.022 196.278 913.312 197.556 912.176 198.834C911.04 200.112 909.762 200.822 908.342 200.822C903.23 200.822 900.816 196.136 900.816 186.764C900.816 179.948 901.526 170.718 903.088 159.216L907.774 124.994C905.502 123.716 904.366 121.87 904.366 119.314C904.366 114.912 905.502 109.516 907.774 103.126C910.472 96.0259 913.312 92.3339 916.152 92.3339C919.844 92.3339 921.832 94.6059 921.832 98.8659ZM1023.61 115.054C1023.61 116.616 1022.9 118.178 1021.77 119.74C1015.8 127.266 1010.41 136.07 1005.58 146.152C1001.89 153.82 998.193 161.346 994.643 169.014C990.383 177.818 986.407 185.202 982.715 191.024C979.591 195.852 976.893 198.408 974.621 198.408C972.065 198.408 969.225 195.71 966.243 190.456C959.143 178.528 953.037 165.038 947.925 149.702C942.103 132.662 939.263 118.32 939.263 106.676C939.263 95.8839 941.251 90.3459 945.369 90.3459C947.783 90.3459 949.629 91.3399 950.765 93.3279C953.889 99.0079 955.451 106.108 955.451 114.628C955.451 118.888 954.315 122.012 952.327 123.716C957.439 145.584 964.965 165.038 974.905 182.22C981.011 169.582 990.667 150.696 1003.87 125.562C1004.44 122.154 1005.86 119.172 1007.99 116.616C1012.25 111.362 1015.52 108.664 1018.07 108.664C1021.77 108.664 1023.61 110.794 1023.61 115.054ZM1098.02 173.842C1098.02 175.83 1096.89 178.528 1094.61 181.794C1088.22 191.734 1078.71 196.562 1066.21 196.562C1056.27 196.562 1048.32 193.296 1042.64 186.622C1036.68 180.09 1033.84 171.57 1033.84 161.062C1033.84 155.666 1035.68 147.998 1039.66 138.2C1043.07 129.254 1047.04 121.586 1051.3 115.196C1046.33 117.752 1043.49 118.888 1042.93 118.888C1038.95 118.888 1037.1 116.9 1037.1 112.924C1037.1 110.226 1040.09 107.386 1046.19 104.404C1060.68 97.3039 1073.74 93.7539 1085.38 93.7539C1089.08 93.7539 1092.34 94.6059 1095.18 96.3099C1097.03 97.4459 1098.02 99.2919 1098.02 101.848C1098.02 105.256 1096.03 106.96 1092.2 106.96C1091.49 106.96 1090.5 106.818 1089.08 106.25C1087.66 105.966 1086.52 105.682 1085.81 105.682C1079.14 105.682 1071.04 107.244 1061.53 110.368C1062.52 112.924 1063.09 114.628 1063.09 115.622C1063.09 116.758 1062.52 118.32 1061.53 120.166C1056.56 129.112 1052.44 137.348 1049.32 144.732C1060.68 141.608 1070.62 139.194 1079.14 137.49C1085.81 136.212 1090.21 135.502 1092.34 135.502C1096.03 135.502 1098.02 137.49 1098.02 141.466C1098.02 144.306 1096.32 146.862 1092.91 149.134C1089.5 151.69 1087.09 152.826 1085.95 152.826C1083.54 152.826 1081.41 151.832 1079.7 149.844C1064.79 153.11 1053.29 155.95 1045.34 158.222C1045.06 159.642 1045.06 161.062 1045.06 162.482C1045.06 169.298 1046.9 174.694 1050.74 178.67C1054.71 182.788 1059.82 184.776 1066.36 184.776C1071.04 184.776 1074.88 183.782 1078 181.652C1080.56 179.948 1083.25 176.966 1086.38 172.564C1088.08 169.724 1090.21 168.304 1092.63 168.304C1093.76 168.304 1095.04 169.014 1096.32 170.15C1097.45 171.428 1098.02 172.706 1098.02 173.842ZM1196.38 92.3339C1196.38 95.3159 1194.96 97.3039 1192.41 98.2979L1180.05 103.126C1178.07 102.984 1176.36 102.416 1175.23 101.422C1172.39 101.99 1166.99 103.41 1159.04 105.966C1157.05 127.408 1156.2 145.726 1156.2 160.778C1156.2 167.452 1156.34 173.842 1156.77 179.806C1157.9 180.942 1158.61 182.646 1158.61 184.918V194.432C1158.61 199.97 1156.62 202.81 1152.65 202.81C1149.1 202.81 1147.11 200.964 1146.83 197.556C1145.41 185.628 1144.84 171.144 1144.84 154.104C1144.84 145.584 1145.55 130.39 1147.25 108.38C1130.78 112.924 1119.42 115.48 1113.03 116.19C1109.76 116.19 1108.2 114.344 1108.2 110.652C1108.2 107.244 1109.76 105.256 1112.89 104.404C1144.41 97.0199 1166.99 91.7659 1180.62 88.3579C1185.45 87.2219 1189.28 86.5119 1191.98 86.5119C1193.12 86.6539 1194.25 87.3639 1195.11 88.4999C1195.96 89.9199 1196.38 91.1979 1196.38 92.3339Z" fill="#D2B069"/>
<path d="M76.8867 54.411C74.7632 47.001 72.243 33.4319 71.0067 26.1807C70.8786 25.4291 71.6026 24.8365 72.3041 25.1351C75.24 26.3848 79.6738 28.6656 82.6598 30.9403C86.9196 34.1853 91.5269 34.6141 98.0941 39.6168C102.794 43.197 114.708 53.4681 121.805 59.6613C122.533 60.2962 123.647 59.6312 123.44 58.6881L117.289 30.716C117.092 29.823 118.098 29.1566 118.844 29.6857L150.606 52.2256C151.14 52.6046 151.889 52.3775 152.125 51.7668C153.794 47.4597 156.532 40.7548 156.83 38.9863C157.191 36.84 161.011 30.9109 163.948 27.6016C164.369 27.1267 165.116 27.2022 165.464 27.7332L185.951 58.9801C186.227 59.4015 186.771 59.5531 187.223 59.3302C192.1 56.9246 201.385 52.179 205.06 49.6789C209.916 46.3758 213.372 43.687 216.783 42.0838C218.455 41.2976 220.82 39.6366 222.308 38.9303C222.807 38.6936 223.297 39.0505 223.356 39.5996L224.221 47.6099C224.576 50.901 223.53 62.0723 222.845 68.3577C222.772 69.0252 223.363 69.5728 224.023 69.4511L269.407 61.0875C270.193 60.9425 270.823 61.7336 270.506 62.4677L267.502 69.4185C267.48 69.4676 267.455 69.5149 267.426 69.5599L252.247 93.3284C251.906 93.8625 252.137 94.5733 252.741 94.7668C261.172 97.4695 276.545 97.6671 280.826 98.1479C284.963 98.6125 300.496 100.006 305.59 102.027C306.165 102.256 306.253 102.961 305.829 103.412L297.498 112.248L266.511 137.234C266.143 137.531 266.031 138.04 266.246 138.461C268.95 143.743 274.34 153.86 276.944 157.234C279.483 160.524 282.291 170.841 283.618 176.59C283.76 177.208 283.293 177.793 282.658 177.79C278.081 177.764 269.933 177.39 266.102 176.003C262.138 174.568 253.213 176.45 248.546 177.756C248.081 177.886 247.784 178.332 247.836 178.812L249.394 193.245C249.872 197.67 249.292 223.976 247.653 225.388C246.355 226.506 241.438 222.755 239.067 220.678C239.016 220.633 238.963 220.595 238.904 220.561L213.351 205.945C212.851 205.659 212.215 205.852 211.962 206.369C210.529 209.295 208.075 214.445 206.886 217.441C205.221 221.634 199.999 253.227 197.423 253.505C195.362 253.728 193.823 252.35 193.312 251.634L159.582 204.212C159.176 203.643 158.335 203.641 157.944 204.221C144.492 224.197 118.457 261.532 115.864 259.996C113.279 258.466 113.304 210.922 113.656 185.712C113.667 184.937 112.831 184.458 112.158 184.843L53.7952 218.227C53.1694 218.585 52.4047 218.182 52.415 217.461C52.462 214.157 53.2918 208.639 54.0943 205.38C55.1855 200.948 64.5179 181.765 71.7832 171.193C72.1743 170.624 71.9038 169.837 71.2417 169.641C53.569 164.406 24.2997 153.507 22.1238 152.177C20.1662 150.98 15.1364 148.865 13.6286 147.284C13.3192 146.96 13.4851 146.494 13.8685 146.262L65.3604 115.079C65.9535 114.72 66.0099 113.881 65.4701 113.445C53.6347 103.904 31.1883 85.8709 27.8996 83.4742C24.9314 81.3111 22.7306 75.0288 21.7089 71.0634C21.5252 70.3502 22.165 69.7162 22.8807 69.8903C33.3285 72.4308 52.4524 77.1347 56.1685 78.2605C59.8485 79.3754 76.3053 80.2337 85.4462 80.5798C86.1863 80.6078 86.6961 79.8521 86.3972 79.1745C83.7537 73.1814 78.999 61.7819 76.8867 54.411Z" fill="#D2B069"/>
<path d="M144.827 150.204L136.069 82.9292C136.028 82.6176 136.133 82.3021 136.373 82.0993C139.112 79.787 144.278 78.8735 147.649 78.1043C152.148 77.0777 210.407 70.0748 214.793 70.7832C219.178 71.4916 221.287 78.7365 221.402 82.7467C221.518 86.7568 215.168 89.4056 212.036 89.7204C208.904 90.0351 163.533 93.79 161.939 95.0993C160.344 96.4085 159.007 96.8423 159.265 99.4018C159.451 101.256 160.835 105.645 161.695 108.174C161.841 108.603 162.25 108.877 162.702 108.844C177.399 107.756 202.896 105.957 205.494 107.051C208.798 108.443 210.165 114.039 209.512 118.988C208.995 122.904 203.178 125.236 200.242 125.939C200.177 125.955 200.114 125.963 200.048 125.964C189.422 126.266 171.342 126.903 169.752 127.063C167.759 127.263 166.734 128.515 165.425 129.796C164.115 131.076 170.913 186.71 168.78 194.106C166.647 201.502 153.558 199.886 149.228 194.001C145.764 189.294 144.851 162.842 144.827 150.204Z" fill="#B83543"/>
</svg>
