<svg width="127" height="89" viewBox="0 0 127 89" fill="none" xmlns="http://www.w3.org/2000/svg">
<path d="M125.67 44.5C125.67 74.4854 97.7617 88 63.335 88C28.9083 88 0.999173 74.4854 1 44.5C1.00083 14.5146 28.9083 1 63.335 1C97.7617 1 125.67 14.5146 125.67 44.5Z" fill="#BF3733"/>
<path d="M123.136 44.5C123.136 73.3238 96.2664 86.3148 63.1212 86.3148C29.976 86.3148 3.1058 73.3238 3.10659 44.5C3.10739 15.6762 29.976 2.68523 63.1212 2.68523C96.2664 2.68523 123.136 15.6762 123.136 44.5Z" fill="#BF3733"/>
<path d="M113.01 44.7107C113.01 68.5974 90.3909 79.3632 62.4884 79.3632C34.5858 79.3632 11.9657 68.5974 11.9664 44.7107C11.9671 20.8239 34.5858 10.0581 62.4884 10.0581C90.3909 10.0581 113.01 20.8239 113.01 44.7107Z" fill="#BF3733"/>
<path d="M125.67 44.5C125.67 74.4854 97.7617 88 63.335 88C28.9083 88 0.999173 74.4854 1 44.5C1.00083 14.5146 28.9083 1 63.335 1C97.7617 1 125.67 14.5146 125.67 44.5Z" stroke="#FFC5C5"/>
<path d="M123.136 44.5C123.136 73.3238 96.2664 86.3148 63.1212 86.3148C29.976 86.3148 3.1058 73.3238 3.10659 44.5C3.10739 15.6762 29.976 2.68523 63.1212 2.68523C96.2664 2.68523 123.136 15.6762 123.136 44.5Z" stroke="#FFC5C5"/>
<path d="M113.01 44.7107C113.01 68.5974 90.3909 79.3632 62.4884 79.3632C34.5858 79.3632 11.9657 68.5974 11.9664 44.7107C11.9671 20.8239 34.5858 10.0581 62.4884 10.0581C90.3909 10.0581 113.01 20.8239 113.01 44.7107Z" stroke="#FFC5C5"/>
<path d="M45.8398 8.00195V7.91395L46.0438 7.86995C46.1371 7.84862 46.1958 7.82462 46.2198 7.79795C46.2464 7.77129 46.2598 7.71662 46.2598 7.63395V5.67795C46.2598 5.59262 46.2464 5.53662 46.2198 5.50995C46.1958 5.48329 46.1371 5.46062 46.0438 5.44195L45.8398 5.39795V5.30995H48.1278C48.1198 5.34729 48.1144 5.38462 48.1118 5.42195C48.1091 5.45662 48.1078 5.49262 48.1078 5.52995C48.1078 5.61262 48.1144 5.69395 48.1278 5.77395C48.1411 5.85129 48.1544 5.93262 48.1678 6.01795H48.0798C48.0478 5.93795 48.0078 5.86329 47.9598 5.79395C47.9118 5.72462 47.8571 5.66462 47.7958 5.61395C47.7371 5.56062 47.6691 5.51929 47.5918 5.48995C47.5171 5.45795 47.4358 5.44195 47.3478 5.44195H46.8198V6.59395H47.3318C47.4224 6.59395 47.4944 6.58195 47.5478 6.55795C47.6011 6.53395 47.6411 6.49929 47.6678 6.45395C47.6971 6.40862 47.7171 6.35395 47.7278 6.28995L47.7598 6.10595H47.8478V7.21395H47.7598L47.7238 7.02195C47.7131 6.95795 47.6931 6.90462 47.6638 6.86195C47.6371 6.81662 47.5971 6.78329 47.5438 6.76195C47.4931 6.73795 47.4251 6.72595 47.3398 6.72595H46.8198V7.63395C46.8198 7.71662 46.8331 7.77262 46.8598 7.80195C46.8864 7.82862 46.9451 7.85129 47.0358 7.86995L47.2678 7.91395V8.00195H45.8398ZM50.0176 8.04595C49.8096 8.04595 49.6189 8.01129 49.4456 7.94195C49.2723 7.86995 49.1216 7.77262 48.9936 7.64995C48.8656 7.52462 48.7656 7.37929 48.6936 7.21395C48.6243 7.04862 48.5896 6.87262 48.5896 6.68595C48.5896 6.48329 48.6243 6.29662 48.6936 6.12595C48.7656 5.95262 48.8656 5.80195 48.9936 5.67395C49.1216 5.54595 49.2723 5.44729 49.4456 5.37795C49.6189 5.30595 49.8096 5.26995 50.0176 5.26995C50.2256 5.26995 50.4176 5.30595 50.5936 5.37795C50.7696 5.44729 50.9216 5.54462 51.0496 5.66995C51.1776 5.79529 51.2763 5.94062 51.3456 6.10595C51.4176 6.26862 51.4536 6.44462 51.4536 6.63395C51.4536 6.83662 51.4176 7.02329 51.3456 7.19395C51.2763 7.36462 51.1776 7.51395 51.0496 7.64195C50.9216 7.76995 50.7696 7.86995 50.5936 7.94195C50.4176 8.01129 50.2256 8.04595 50.0176 8.04595ZM50.0176 7.90595C50.1856 7.90595 50.3309 7.85395 50.4536 7.74995C50.5763 7.64595 50.6709 7.49929 50.7376 7.30995C50.8069 7.11795 50.8416 6.89395 50.8416 6.63795C50.8416 6.39529 50.8069 6.18195 50.7376 5.99795C50.6709 5.81395 50.5763 5.66995 50.4536 5.56595C50.3309 5.46195 50.1856 5.40995 50.0176 5.40995C49.8549 5.40995 49.7123 5.46195 49.5896 5.56595C49.4669 5.66995 49.3709 5.81795 49.3016 6.00995C49.2349 6.19929 49.2016 6.42462 49.2016 6.68595C49.2016 6.86462 49.2203 7.02862 49.2576 7.17795C49.2976 7.32729 49.3536 7.45662 49.4256 7.56595C49.4976 7.67529 49.5829 7.75929 49.6816 7.81795C49.7829 7.87662 49.8949 7.90595 50.0176 7.90595ZM51.8532 8.00195V7.91395L52.0572 7.86995C52.1505 7.84862 52.2092 7.82462 52.2332 7.79795C52.2599 7.77129 52.2732 7.71662 52.2732 7.63395V5.67795C52.2732 5.59262 52.2599 5.53662 52.2332 5.50995C52.2092 5.48329 52.1505 5.46062 52.0572 5.44195L51.8532 5.39795V5.30995H53.2532V5.39795L53.0492 5.44195C52.9585 5.46062 52.8999 5.48329 52.8732 5.50995C52.8465 5.53662 52.8332 5.59262 52.8332 5.67795V7.63395C52.8332 7.70595 52.8519 7.76329 52.8892 7.80595C52.9292 7.84862 53.0025 7.86995 53.1092 7.86995H53.6132C53.7145 7.86995 53.8039 7.85795 53.8812 7.83395C53.9585 7.80729 54.0265 7.76862 54.0852 7.71795C54.1439 7.66462 54.1959 7.59929 54.2412 7.52195L54.4292 7.21395H54.5172C54.4905 7.33129 54.4639 7.46195 54.4372 7.60595C54.4132 7.74729 54.4012 7.87929 54.4012 8.00195H51.8532ZM54.7779 8.00195V7.91395L54.9819 7.86995C55.0752 7.84862 55.1339 7.82462 55.1579 7.79795C55.1846 7.77129 55.1979 7.71662 55.1979 7.63395V5.67795C55.1979 5.59262 55.1846 5.53662 55.1579 5.50995C55.1339 5.48329 55.0752 5.46062 54.9819 5.44195L54.7779 5.39795V5.30995H56.1779V5.39795L55.9739 5.44195C55.8832 5.46062 55.8246 5.48329 55.7979 5.50995C55.7712 5.53662 55.7579 5.59262 55.7579 5.67795V6.74195L56.9259 5.61395C56.9552 5.58729 56.9686 5.55795 56.9659 5.52595C56.9632 5.49129 56.9312 5.46862 56.8699 5.45795L56.5539 5.39795V5.30995H57.6299V5.39795L57.5099 5.42595C57.4592 5.43662 57.4126 5.45129 57.3699 5.46995C57.3272 5.48595 57.2832 5.50995 57.2379 5.54195C57.1952 5.57395 57.1446 5.61795 57.0859 5.67395L56.3339 6.40195L57.3659 7.74595C57.4166 7.80195 57.4659 7.84329 57.5139 7.86995C57.5619 7.89662 57.6219 7.90995 57.6939 7.90995V8.00195H57.2099C57.0979 8.00195 57.0046 7.98729 56.9299 7.95795C56.8552 7.92595 56.7832 7.87262 56.7139 7.79795L55.9299 6.78995L55.7579 6.95795V7.63395C55.7579 7.71662 55.7712 7.77129 55.7979 7.79795C55.8246 7.82462 55.8832 7.84862 55.9739 7.86995L56.1779 7.91395V8.00195H54.7779ZM57.9721 8.00195V7.91395L58.1761 7.86995C58.2694 7.84862 58.3281 7.82462 58.3521 7.79795C58.3788 7.77129 58.3921 7.71662 58.3921 7.63395V5.67795C58.3921 5.59262 58.3788 5.53662 58.3521 5.50995C58.3281 5.48329 58.2694 5.46062 58.1761 5.44195L57.9721 5.39795V5.30995H60.2641C60.2561 5.34729 60.2508 5.38462 60.2481 5.42195C60.2454 5.45662 60.2441 5.49262 60.2441 5.52995C60.2441 5.61262 60.2508 5.69395 60.2641 5.77395C60.2774 5.85129 60.2908 5.93262 60.3041 6.01795H60.2161C60.1734 5.91129 60.1174 5.81529 60.0481 5.72995C59.9788 5.64195 59.8974 5.57262 59.8041 5.52195C59.7108 5.46862 59.6041 5.44195 59.4841 5.44195H58.9521V6.51395H59.4641C59.5974 6.51395 59.6921 6.48729 59.7481 6.43395C59.8068 6.38062 59.8441 6.30595 59.8601 6.20995L59.8921 6.02595H59.9801V7.13395H59.8921L59.8561 6.94195C59.8401 6.84862 59.8041 6.77662 59.7481 6.72595C59.6921 6.67262 59.6001 6.64595 59.4721 6.64595H58.9521V7.52595C58.9521 7.60329 58.9561 7.66862 58.9641 7.72195C58.9721 7.77262 58.9948 7.80995 59.0321 7.83395C59.0721 7.85795 59.1374 7.86995 59.2281 7.86995H59.5241C59.6201 7.86995 59.7054 7.85662 59.7801 7.82995C59.8548 7.80062 59.9228 7.76062 59.9841 7.70995C60.0454 7.65662 60.1014 7.59395 60.1521 7.52195L60.3241 7.28195H60.4121C60.3854 7.39929 60.3614 7.51795 60.3401 7.63795C60.3214 7.75795 60.3121 7.87929 60.3121 8.00195H57.9721ZM60.6718 8.00195V7.91395L60.9038 7.86195C60.9625 7.84862 61.0065 7.82995 61.0358 7.80595C61.0678 7.77929 61.0931 7.74462 61.1118 7.70195L61.9278 5.76995L61.8038 5.46195C61.8891 5.45929 61.9611 5.44329 62.0198 5.41395C62.0785 5.38195 62.1225 5.34729 62.1518 5.30995C62.1811 5.26995 62.1958 5.23662 62.1958 5.20995H62.2518L63.2998 7.75395C63.3131 7.78595 63.3345 7.80995 63.3638 7.82595C63.3931 7.84195 63.4398 7.85662 63.5038 7.86995L63.7078 7.91395V8.00195H62.3078V7.91395L62.5118 7.86995C62.5705 7.85662 62.6131 7.84062 62.6398 7.82195C62.6691 7.80062 62.6838 7.77262 62.6838 7.73795C62.6838 7.72462 62.6811 7.71129 62.6758 7.69795C62.6731 7.68462 62.6691 7.66995 62.6638 7.65395L61.9518 5.86995H62.0398L61.2638 7.70595C61.2611 7.71395 61.2585 7.72195 61.2558 7.72995C61.2558 7.73795 61.2558 7.74462 61.2558 7.74995C61.2558 7.77395 61.2651 7.79529 61.2838 7.81395C61.3025 7.83262 61.3331 7.84595 61.3758 7.85395L61.7198 7.91395V8.00195H60.6718ZM61.5158 7.09795V6.96595H62.6558V7.09795H61.5158ZM66.678 8.06195C66.566 8.06195 66.4594 8.04195 66.358 8.00195C66.2567 7.96195 66.158 7.89795 66.062 7.80995C65.966 7.72195 65.87 7.60729 65.774 7.46595C65.7074 7.36462 65.6394 7.26595 65.57 7.16995C65.5007 7.07129 65.4234 6.98995 65.338 6.92595C65.2554 6.85929 65.1554 6.82595 65.038 6.82595H64.946V7.63395C64.946 7.71662 64.9594 7.77129 64.986 7.79795C65.0127 7.82462 65.0714 7.84862 65.162 7.86995L65.366 7.91395V8.00195H63.966V7.91395L64.17 7.86995C64.2634 7.84862 64.322 7.82462 64.346 7.79795C64.3727 7.77129 64.386 7.71662 64.386 7.63395V5.67795C64.386 5.59262 64.3727 5.53662 64.346 5.50995C64.322 5.48329 64.2634 5.46062 64.17 5.44195L63.966 5.39795V5.30995H65.086C65.486 5.30995 65.798 5.37395 66.022 5.50195C66.2487 5.62995 66.362 5.81129 66.362 6.04595C66.362 6.16862 66.3234 6.28062 66.246 6.38195C66.1714 6.48062 66.0714 6.56062 65.946 6.62195C65.8207 6.68329 65.6834 6.72195 65.534 6.73795V6.74595C65.6567 6.75129 65.766 6.78462 65.862 6.84595C65.958 6.90462 66.0447 6.98062 66.122 7.07395C66.202 7.16462 66.2767 7.26195 66.346 7.36595C66.4154 7.46462 66.4847 7.55662 66.554 7.64195C66.6234 7.72729 66.694 7.79662 66.766 7.84995C66.8407 7.90062 66.9167 7.92595 66.994 7.92595V8.02195C66.8874 8.04862 66.782 8.06195 66.678 8.06195ZM64.946 6.69395H65.086C65.214 6.69395 65.3314 6.67262 65.438 6.62995C65.5474 6.58462 65.634 6.51795 65.698 6.42995C65.762 6.33929 65.794 6.22462 65.794 6.08595C65.794 5.87529 65.7274 5.71529 65.594 5.60595C65.4634 5.49662 65.2767 5.44195 65.034 5.44195H64.946V6.69395ZM67.254 8.00195V7.91395L67.458 7.86995C67.5513 7.84862 67.61 7.82462 67.634 7.79795C67.6607 7.77129 67.674 7.71662 67.674 7.63395V5.67795C67.674 5.59262 67.6607 5.53662 67.634 5.50995C67.61 5.48329 67.5513 5.46062 67.458 5.44195L67.254 5.39795V5.30995H68.654V5.39795L68.45 5.44195C68.3593 5.46062 68.3007 5.48329 68.274 5.50995C68.2473 5.53662 68.234 5.59262 68.234 5.67795V6.74195L69.402 5.61395C69.4313 5.58729 69.4447 5.55795 69.442 5.52595C69.4393 5.49129 69.4073 5.46862 69.346 5.45795L69.03 5.39795V5.30995H70.106V5.39795L69.986 5.42595C69.9353 5.43662 69.8887 5.45129 69.846 5.46995C69.8033 5.48595 69.7593 5.50995 69.714 5.54195C69.6713 5.57395 69.6207 5.61795 69.562 5.67395L68.81 6.40195L69.842 7.74595C69.8927 7.80195 69.942 7.84329 69.99 7.86995C70.038 7.89662 70.098 7.90995 70.17 7.90995V8.00195H69.686C69.574 8.00195 69.4807 7.98729 69.406 7.95795C69.3313 7.92595 69.2593 7.87262 69.19 7.79795L68.406 6.78995L68.234 6.95795V7.63395C68.234 7.71662 68.2473 7.77129 68.274 7.79795C68.3007 7.82462 68.3593 7.84862 68.45 7.86995L68.654 7.91395V8.00195H67.254ZM70.4482 8.00195V7.91395L70.6522 7.86995C70.7455 7.84862 70.8042 7.82462 70.8282 7.79795C70.8549 7.77129 70.8682 7.71662 70.8682 7.63395V5.67795C70.8682 5.59262 70.8549 5.53662 70.8282 5.50995C70.8042 5.48329 70.7455 5.46062 70.6522 5.44195L70.4482 5.39795V5.30995H71.8482V5.39795L71.6442 5.44195C71.5535 5.46062 71.4949 5.48329 71.4682 5.50995C71.4415 5.53662 71.4282 5.59262 71.4282 5.67795V7.63395C71.4282 7.71662 71.4415 7.77129 71.4682 7.79795C71.4949 7.82462 71.5535 7.84862 71.6442 7.86995L71.8482 7.91395V8.00195H70.4482ZM73.5368 8.06195L72.4768 5.54595C72.4662 5.51662 72.4462 5.49395 72.4168 5.47795C72.3902 5.46195 72.3608 5.45129 72.3288 5.44595L72.1088 5.39795V5.30995H73.5488V5.39795L73.3448 5.44195C73.2782 5.45529 73.2288 5.47395 73.1968 5.49795C73.1648 5.51929 73.1488 5.54862 73.1488 5.58595C73.1488 5.59662 73.1502 5.60995 73.1528 5.62595C73.1582 5.64195 73.1635 5.65795 73.1688 5.67395L73.8848 7.51795H73.7768L74.5328 5.66195C74.5382 5.64862 74.5422 5.63662 74.5448 5.62595C74.5475 5.61529 74.5488 5.60462 74.5488 5.59395C74.5488 5.55929 74.5342 5.53262 74.5048 5.51395C74.4755 5.49262 74.4315 5.47662 74.3728 5.46595L74.0728 5.39795V5.30995H75.1888V5.39795L74.9368 5.44995C74.8862 5.46062 74.8435 5.47662 74.8088 5.49795C74.7742 5.51662 74.7475 5.54862 74.7288 5.59395L73.7288 8.06195H73.5368ZM75.4499 8.00195V7.91395L75.6539 7.86995C75.7473 7.84862 75.8059 7.82462 75.8299 7.79795C75.8566 7.77129 75.8699 7.71662 75.8699 7.63395V5.67795C75.8699 5.59262 75.8566 5.53662 75.8299 5.50995C75.8059 5.48329 75.7473 5.46062 75.6539 5.44195L75.4499 5.39795V5.30995H77.7419C77.7339 5.34729 77.7286 5.38462 77.7259 5.42195C77.7233 5.45662 77.7219 5.49262 77.7219 5.52995C77.7219 5.61262 77.7286 5.69395 77.7419 5.77395C77.7553 5.85129 77.7686 5.93262 77.7819 6.01795H77.6939C77.6513 5.91129 77.5953 5.81529 77.5259 5.72995C77.4566 5.64195 77.3753 5.57262 77.2819 5.52195C77.1886 5.46862 77.0819 5.44195 76.9619 5.44195H76.4299V6.51395H76.9419C77.0753 6.51395 77.1699 6.48729 77.2259 6.43395C77.2846 6.38062 77.3219 6.30595 77.3379 6.20995L77.3699 6.02595H77.4579V7.13395H77.3699L77.3339 6.94195C77.3179 6.84862 77.2819 6.77662 77.2259 6.72595C77.1699 6.67262 77.0779 6.64595 76.9499 6.64595H76.4299V7.52595C76.4299 7.60329 76.4339 7.66862 76.4419 7.72195C76.4499 7.77262 76.4726 7.80995 76.5099 7.83395C76.5499 7.85795 76.6153 7.86995 76.7059 7.86995H77.0019C77.0979 7.86995 77.1833 7.85662 77.2579 7.82995C77.3326 7.80062 77.4006 7.76062 77.4619 7.70995C77.5233 7.65662 77.5793 7.59395 77.6299 7.52195L77.8019 7.28195H77.8899C77.8633 7.39929 77.8393 7.51795 77.8179 7.63795C77.7993 7.75795 77.7899 7.87929 77.7899 8.00195H75.4499ZM78.8376 8.00195V7.91395L79.0416 7.86995C79.1349 7.84862 79.1936 7.82462 79.2176 7.79795C79.2443 7.77129 79.2576 7.71662 79.2576 7.63395V5.44195H78.9656C78.8509 5.44195 78.7469 5.47262 78.6536 5.53395C78.5603 5.59262 78.4816 5.67262 78.4176 5.77395C78.3536 5.87262 78.3069 5.98062 78.2776 6.09795H78.1696C78.1856 6.02595 78.1989 5.94462 78.2096 5.85395C78.2229 5.76062 78.2309 5.66729 78.2336 5.57395C78.2363 5.47795 78.2309 5.38995 78.2176 5.30995H80.8576C80.8443 5.38995 80.8389 5.47795 80.8416 5.57395C80.8443 5.66729 80.8523 5.76062 80.8656 5.85395C80.8789 5.94462 80.8923 6.02595 80.9056 6.09795H80.7976C80.7683 5.98062 80.7216 5.87262 80.6576 5.77395C80.5936 5.67262 80.5149 5.59262 80.4216 5.53395C80.3309 5.47262 80.2269 5.44195 80.1096 5.44195H79.8176V7.63395C79.8176 7.71662 79.8309 7.77129 79.8576 7.79795C79.8843 7.82462 79.9429 7.84862 80.0336 7.86995L80.2376 7.91395V8.00195H78.8376Z" fill="#FFC5C5"/>
<path d="M58.0482 83.4937C57.9202 83.4937 57.8062 83.4637 57.7062 83.4037C57.6082 83.3437 57.5302 83.2627 57.4722 83.1607C57.4162 83.0587 57.3882 82.9457 57.3882 82.8217C57.3882 82.6817 57.4182 82.5587 57.4782 82.4527C57.5402 82.3467 57.6232 82.2637 57.7272 82.2037C57.8332 82.1437 57.9522 82.1137 58.0842 82.1137C58.1902 82.1137 58.2822 82.1387 58.3602 82.1887C58.4402 82.2367 58.5022 82.3037 58.5462 82.3897C58.5902 82.4737 58.6122 82.5687 58.6122 82.6747C58.6122 82.6947 58.6062 82.7127 58.5942 82.7287C58.5842 82.7427 58.5672 82.7497 58.5432 82.7497H57.5712V82.6417L58.2222 82.6147C58.2502 82.6147 58.2642 82.5937 58.2642 82.5517C58.2642 82.4457 58.2462 82.3627 58.2102 82.3027C58.1742 82.2407 58.1262 82.2097 58.0662 82.2097C57.9742 82.2097 57.9022 82.2597 57.8502 82.3597C57.7982 82.4597 57.7722 82.5907 57.7722 82.7527C57.7722 82.8647 57.7922 82.9597 57.8322 83.0377C57.8722 83.1157 57.9252 83.1747 57.9912 83.2147C58.0572 83.2547 58.1292 83.2747 58.2072 83.2747C58.3252 83.2747 58.4432 83.2247 58.5612 83.1247L58.6122 83.1727C58.5322 83.2827 58.4452 83.3637 58.3512 83.4157C58.2572 83.4677 58.1562 83.4937 58.0482 83.4937ZM59.3292 83.4937C59.1292 83.4937 59.0292 83.3727 59.0292 83.1307V82.2427H58.8372V82.1617C58.9732 82.1437 59.0782 82.0977 59.1522 82.0237C59.2262 81.9477 59.2762 81.8417 59.3022 81.7057H59.3802V82.1437H59.7252L59.6952 82.2427H59.3802V83.1067C59.3802 83.1827 59.3922 83.2337 59.4162 83.2597C59.4402 83.2837 59.4712 83.2957 59.5092 83.2957C59.5372 83.2957 59.5692 83.2887 59.6052 83.2747C59.6432 83.2607 59.6812 83.2427 59.7192 83.2207L59.7612 83.2987C59.6812 83.3627 59.6032 83.4117 59.5272 83.4457C59.4512 83.4777 59.3852 83.4937 59.3292 83.4937ZM60.1838 83.5057L60.1208 83.4967V81.6457C60.1208 81.6037 60.1138 81.5757 60.0998 81.5617C60.0858 81.5477 60.0658 81.5377 60.0398 81.5317L59.9438 81.5077V81.4537C60.0578 81.4377 60.1548 81.4227 60.2348 81.4087C60.3148 81.3947 60.3978 81.3717 60.4838 81.3397L60.5138 81.3637C60.4998 81.3857 60.4888 81.4197 60.4808 81.4657C60.4748 81.5117 60.4718 81.5617 60.4718 81.6157V82.2877L60.7118 82.1527C60.7258 82.1447 60.7428 82.1377 60.7628 82.1317C60.7848 82.1237 60.8058 82.1197 60.8258 82.1197C60.9758 82.1197 61.0988 82.1507 61.1948 82.2127C61.2928 82.2747 61.3648 82.3567 61.4108 82.4587C61.4588 82.5587 61.4828 82.6667 61.4828 82.7827C61.4828 82.8987 61.4568 83.0117 61.4048 83.1217C61.3548 83.2317 61.2768 83.3217 61.1708 83.3917C61.0668 83.4617 60.9338 83.4967 60.7718 83.4967C60.6858 83.4967 60.6008 83.4807 60.5168 83.4487C60.4348 83.4147 60.3678 83.3737 60.3158 83.3257C60.2918 83.3517 60.2688 83.3797 60.2468 83.4097C60.2268 83.4397 60.2058 83.4717 60.1838 83.5057ZM60.7718 83.3917C60.8478 83.3917 60.9098 83.3687 60.9578 83.3227C61.0058 83.2747 61.0408 83.2127 61.0628 83.1367C61.0868 83.0607 61.0988 82.9807 61.0988 82.8967C61.0988 82.7987 61.0858 82.7077 61.0598 82.6237C61.0338 82.5377 60.9938 82.4677 60.9398 82.4137C60.8858 82.3597 60.8158 82.3327 60.7298 82.3327C60.6498 82.3327 60.5868 82.3587 60.5408 82.4107C60.4948 82.4627 60.4718 82.5237 60.4718 82.5937V83.0047C60.4718 83.0747 60.4858 83.1397 60.5138 83.1997C60.5418 83.2577 60.5788 83.3047 60.6248 83.3407C60.6708 83.3747 60.7198 83.3917 60.7718 83.3917ZM61.6781 83.4697V83.4187L61.7741 83.3827C61.8021 83.3727 61.8221 83.3577 61.8341 83.3377C61.8481 83.3157 61.8551 83.2907 61.8551 83.2627V81.6457C61.8551 81.6037 61.8481 81.5757 61.8341 81.5617C61.8201 81.5477 61.8001 81.5377 61.7741 81.5317L61.6781 81.5077V81.4537C61.7921 81.4377 61.8891 81.4227 61.9691 81.4087C62.0491 81.3947 62.1321 81.3717 62.2181 81.3397L62.2481 81.3637C62.2341 81.3857 62.2231 81.4197 62.2151 81.4657C62.2091 81.5117 62.2061 81.5617 62.2061 81.6157V83.2837C62.2061 83.3117 62.2151 83.3337 62.2331 83.3497C62.2531 83.3657 62.2711 83.3767 62.2871 83.3827L62.3831 83.4187V83.4697H61.6781ZM62.9449 83.5027C62.8769 83.5027 62.8179 83.4787 62.7679 83.4307C62.7199 83.3807 62.6959 83.3217 62.6959 83.2537C62.6959 83.1837 62.7199 83.1247 62.7679 83.0767C62.8179 83.0267 62.8769 83.0017 62.9449 83.0017C63.0149 83.0017 63.0739 83.0267 63.1219 83.0767C63.1699 83.1247 63.1939 83.1837 63.1939 83.2537C63.1939 83.3217 63.1699 83.3807 63.1219 83.4307C63.0739 83.4787 63.0149 83.5027 62.9449 83.5027ZM64.4849 83.4697V83.4127L64.9499 82.8277C65.0079 82.7557 65.0599 82.6847 65.1059 82.6147C65.1519 82.5427 65.1909 82.4707 65.2229 82.3987C65.2549 82.3267 65.2789 82.2537 65.2949 82.1797C65.3129 82.1037 65.3219 82.0257 65.3219 81.9457C65.3219 81.8137 65.2969 81.7127 65.2469 81.6427C65.1989 81.5707 65.1219 81.5347 65.0159 81.5347C64.9679 81.5347 64.9269 81.5407 64.8929 81.5527C64.8589 81.5627 64.8329 81.5777 64.8149 81.5977C64.7969 81.6157 64.7879 81.6367 64.7879 81.6607C64.7879 81.6907 64.7959 81.7197 64.8119 81.7477C64.8199 81.7617 64.8269 81.7767 64.8329 81.7927C64.8389 81.8087 64.8419 81.8277 64.8419 81.8497C64.8419 81.9017 64.8249 81.9427 64.7909 81.9727C64.7569 82.0007 64.7159 82.0147 64.6679 82.0147C64.6179 82.0147 64.5769 81.9977 64.5449 81.9637C64.5129 81.9277 64.4969 81.8867 64.4969 81.8407C64.4969 81.7707 64.5209 81.7037 64.5689 81.6397C64.6169 81.5757 64.6849 81.5237 64.7729 81.4837C64.8629 81.4417 64.9669 81.4207 65.0849 81.4207C65.2309 81.4207 65.3529 81.4457 65.4509 81.4957C65.5509 81.5437 65.6259 81.6077 65.6759 81.6877C65.7259 81.7657 65.7509 81.8507 65.7509 81.9427C65.7509 82.0687 65.7209 82.1837 65.6609 82.2877C65.6009 82.3917 65.5249 82.4907 65.4329 82.5847C65.3429 82.6767 65.2519 82.7697 65.1599 82.8637L64.9169 83.1127H65.5349C65.5869 83.1127 65.6259 83.0977 65.6519 83.0677C65.6779 83.0377 65.7009 82.9947 65.7209 82.9387L65.7389 82.8907H65.8049L65.6909 83.4697H64.4849ZM66.9235 83.4937C66.7875 83.4937 66.6705 83.4667 66.5725 83.4127C66.4765 83.3567 66.3965 83.2807 66.3325 83.1847C66.2705 83.0867 66.2245 82.9747 66.1945 82.8487C66.1645 82.7227 66.1495 82.5877 66.1495 82.4437C66.1495 82.2517 66.1765 82.0787 66.2305 81.9247C66.2845 81.7707 66.3685 81.6487 66.4825 81.5587C66.5965 81.4667 66.7435 81.4207 66.9235 81.4207C67.1015 81.4207 67.2475 81.4667 67.3615 81.5587C67.4755 81.6487 67.5595 81.7707 67.6135 81.9247C67.6675 82.0787 67.6945 82.2517 67.6945 82.4437C67.6945 82.5877 67.6795 82.7227 67.6495 82.8487C67.6195 82.9747 67.5725 83.0867 67.5085 83.1847C67.4465 83.2807 67.3665 83.3567 67.2685 83.4127C67.1725 83.4667 67.0575 83.4937 66.9235 83.4937ZM66.9205 83.3887C66.9925 83.3887 67.0505 83.3637 67.0945 83.3137C67.1385 83.2637 67.1715 83.1947 67.1935 83.1067C67.2175 83.0187 67.2325 82.9187 67.2385 82.8067C67.2465 82.6927 67.2505 82.5717 67.2505 82.4437C67.2505 82.3177 67.2465 82.1997 67.2385 82.0897C67.2305 81.9777 67.2145 81.8807 67.1905 81.7987C67.1685 81.7147 67.1355 81.6487 67.0915 81.6007C67.0495 81.5527 66.9935 81.5287 66.9235 81.5287C66.8515 81.5287 66.7935 81.5527 66.7495 81.6007C66.7075 81.6487 66.6745 81.7147 66.6505 81.7987C66.6285 81.8807 66.6135 81.9777 66.6055 82.0897C66.5975 82.1997 66.5935 82.3177 66.5935 82.4437C66.5935 82.5717 66.5965 82.6927 66.6025 82.8067C66.6105 82.9187 66.6255 83.0187 66.6475 83.1067C66.6715 83.1947 66.7045 83.2637 66.7465 83.3137C66.7905 83.3637 66.8485 83.3887 66.9205 83.3887ZM67.9959 83.4697V83.4127L68.4609 82.8277C68.5189 82.7557 68.5709 82.6847 68.6169 82.6147C68.6629 82.5427 68.7019 82.4707 68.7339 82.3987C68.7659 82.3267 68.7899 82.2537 68.8059 82.1797C68.8239 82.1037 68.8329 82.0257 68.8329 81.9457C68.8329 81.8137 68.8079 81.7127 68.7579 81.6427C68.7099 81.5707 68.6329 81.5347 68.5269 81.5347C68.4789 81.5347 68.4379 81.5407 68.4039 81.5527C68.3699 81.5627 68.3439 81.5777 68.3259 81.5977C68.3079 81.6157 68.2989 81.6367 68.2989 81.6607C68.2989 81.6907 68.3069 81.7197 68.3229 81.7477C68.3309 81.7617 68.3379 81.7767 68.3439 81.7927C68.3499 81.8087 68.3529 81.8277 68.3529 81.8497C68.3529 81.9017 68.3359 81.9427 68.3019 81.9727C68.2679 82.0007 68.2269 82.0147 68.1789 82.0147C68.1289 82.0147 68.0879 81.9977 68.0559 81.9637C68.0239 81.9277 68.0079 81.8867 68.0079 81.8407C68.0079 81.7707 68.0319 81.7037 68.0799 81.6397C68.1279 81.5757 68.1959 81.5237 68.2839 81.4837C68.3739 81.4417 68.4779 81.4207 68.5959 81.4207C68.7419 81.4207 68.8639 81.4457 68.9619 81.4957C69.0619 81.5437 69.1369 81.6077 69.1869 81.6877C69.2369 81.7657 69.2619 81.8507 69.2619 81.9427C69.2619 82.0687 69.2319 82.1837 69.1719 82.2877C69.1119 82.3917 69.0359 82.4907 68.9439 82.5847C68.8539 82.6767 68.7629 82.7697 68.6709 82.8637L68.4279 83.1127H69.0459C69.0979 83.1127 69.1369 83.0977 69.1629 83.0677C69.1889 83.0377 69.2119 82.9947 69.2319 82.9387L69.2499 82.8907H69.3159L69.2019 83.4697H67.9959ZM70.1016 83.4697V83.4037L70.2546 83.3707C70.3246 83.3547 70.3686 83.3337 70.3866 83.3077C70.4066 83.2817 70.4166 83.2377 70.4166 83.1757V81.8827L70.4766 81.9097L69.7566 82.8067L69.7506 82.7377H70.9026C70.9386 82.7377 70.9676 82.7297 70.9896 82.7137C71.0136 82.6957 71.0326 82.6687 71.0466 82.6327L71.0946 82.5127H71.1636L71.0466 82.9987H69.5706V82.8517L70.7106 81.4207H70.8096V83.1757C70.8096 83.2377 70.8196 83.2817 70.8396 83.3077C70.8596 83.3337 70.9036 83.3547 70.9716 83.3707L71.1246 83.4037V83.4697H70.1016Z" fill="#FFC5C5"/>
<path d="M47.2309 27.7464C46.8183 26.2958 46.3287 23.6396 46.0885 22.2201C46.0636 22.073 46.2043 21.957 46.3406 22.0154C46.911 22.2601 47.7723 22.7066 48.3524 23.1518C49.18 23.7871 50.0751 23.871 51.3509 24.8503C52.264 25.5512 54.5785 27.5618 55.9573 28.7742C56.0987 28.8985 56.3151 28.7683 56.2749 28.5837L55.0799 23.1079C55.0417 22.9331 55.2371 22.8027 55.382 22.9063L61.5525 27.3186C61.6563 27.3928 61.8018 27.3483 61.8476 27.2288C62.1719 26.3856 62.7038 25.0731 62.7617 24.7269C62.8318 24.3068 63.574 23.1461 64.1445 22.4983C64.2263 22.4053 64.3715 22.4201 64.4391 22.524L68.4191 28.6408C68.4728 28.7233 68.5784 28.753 68.6662 28.7094C69.6137 28.2384 71.4175 27.3095 72.1315 26.8201C73.0749 26.1734 73.7463 25.6471 74.409 25.3333C74.7338 25.1794 75.1932 24.8542 75.4823 24.7159C75.5793 24.6696 75.6745 24.7395 75.6859 24.847L75.854 26.415C75.9229 27.0593 75.7197 29.2461 75.5866 30.4765C75.5725 30.6072 75.6873 30.7144 75.8155 30.6906L84.6324 29.0534C84.7851 29.025 84.9075 29.1798 84.8459 29.3235L84.2623 30.6842C84.258 30.6938 84.2532 30.7031 84.2475 30.7119L81.2987 35.3647C81.2324 35.4693 81.2773 35.6084 81.3946 35.6463C83.0326 36.1754 86.0191 36.2141 86.8508 36.3082C87.6545 36.3991 90.6721 36.6719 91.6618 37.0675C91.7735 37.1124 91.7906 37.2504 91.7082 37.3387L90.0897 39.0684L84.0698 43.9595C83.9983 44.0177 83.9765 44.1173 84.0183 44.1997C84.5436 45.2337 85.5907 47.2142 86.0966 47.8747C86.5899 48.5187 87.1354 50.5383 87.3932 51.6637C87.4208 51.7847 87.3301 51.8992 87.2067 51.8986C86.3175 51.8935 84.7346 51.8203 83.9903 51.5488C83.2202 51.2679 81.4863 51.6363 80.5797 51.892C80.4893 51.9174 80.4316 52.0047 80.4417 52.0987L80.7444 54.9241C80.8373 55.7903 80.7246 60.9398 80.4062 61.2163C80.154 61.4351 79.1988 60.7008 78.7381 60.2942C78.7282 60.2854 78.7179 60.278 78.7065 60.2713L73.7422 57.4102C73.6451 57.3542 73.5215 57.392 73.4724 57.4932C73.194 58.0659 72.7172 59.0741 72.4862 59.6606C72.1628 60.4814 71.1483 66.6659 70.6478 66.7203C70.2474 66.764 69.9485 66.4942 69.8492 66.3541L63.2963 57.0709C63.2175 56.9595 63.0541 56.9591 62.9781 57.0727C60.3648 60.9831 55.3069 68.2917 54.8031 67.991C54.3009 67.6915 54.3058 58.3844 54.3742 53.4494C54.3763 53.2977 54.2139 53.2039 54.0831 53.2793L42.7448 59.8144C42.6232 59.8845 42.4747 59.8056 42.4767 59.6645C42.4858 59.0177 42.647 57.9375 42.8029 57.2996C43.0149 56.432 44.8279 52.6768 46.2394 50.6072C46.3154 50.4958 46.2628 50.3418 46.1342 50.3034C42.7009 49.2786 37.0146 47.1451 36.5919 46.8847C36.2116 46.6504 35.2344 46.2364 34.9415 45.9269C34.8814 45.8635 34.9136 45.7722 34.9881 45.7268L44.9916 39.6226C45.1068 39.5523 45.1178 39.388 45.0129 39.3027C42.7136 37.435 38.3529 33.9049 37.714 33.4357C37.1373 33.0123 36.7098 31.7825 36.5113 31.0062C36.4756 30.8666 36.5999 30.7425 36.7389 30.7766C38.7687 31.2739 42.4839 32.1947 43.2059 32.4151C43.9208 32.6333 47.1179 32.8014 48.8937 32.8691C49.0375 32.8746 49.1366 32.7267 49.0785 32.594C48.5649 31.4208 47.6412 29.1893 47.2309 27.7464Z" fill="#D2B069"/>
<path d="M60.4297 46.4984L58.7282 33.3289C58.7203 33.2679 58.7407 33.2061 58.7873 33.1664C59.3194 32.7138 60.323 32.535 60.9779 32.3844C61.852 32.1834 73.1701 30.8126 74.0222 30.9512C74.8741 31.0899 75.2838 32.5081 75.3062 33.2932C75.3287 34.0782 74.0951 34.5967 73.4866 34.6583C72.8781 34.7199 64.0638 35.455 63.7541 35.7113C63.4442 35.9676 63.1845 36.0525 63.2346 36.5535C63.2707 36.9165 63.5396 37.7757 63.7067 38.2707C63.7351 38.3547 63.8145 38.4083 63.9023 38.4019C66.7576 38.1889 71.7109 37.8367 72.2157 38.0509C72.8575 38.3234 73.1231 39.4188 72.9963 40.3876C72.8958 41.1542 71.7657 41.6107 71.1953 41.7483C71.1827 41.7515 71.1705 41.753 71.1577 41.7532C69.0933 41.8124 65.5808 41.9371 65.2719 41.9684C64.8848 42.0075 64.6856 42.2526 64.4313 42.5034C64.1768 42.7539 65.4975 53.6447 65.0831 55.0925C64.6687 56.5403 62.1259 56.224 61.2847 55.0719C60.6117 54.1505 60.4344 48.9723 60.4297 46.4984Z" fill="#B83543"/>
</svg>
